<svg version="1.1" id="Layer_1" xmlns="http://www.w3.org/2000/svg" xmlns:xlink="http://www.w3.org/1999/xlink" x="0px" y="0px"
	 width="100%" viewBox="0 0 1024 576" enable-background="new 0 0 1024 576" xml:space="preserve">
<path fill="#ffffff" opacity="1.000000" stroke="none" 
	d="
M502.931580,154.612396 
	C506.213440,154.782272 509.060913,154.207169 512.730652,155.411606 
	C508.898956,168.845825 505.079956,182.235489 501.225739,195.748627 
	C497.742676,194.626648 496.465179,192.103836 494.932343,190.052689 
	C481.028870,171.447922 461.815033,167.029633 439.953674,168.725418 
	C399.104797,171.894089 370.381073,207.833679 367.137512,246.527588 
	C365.065582,271.244385 369.222321,294.305725 383.223389,315.056000 
	C397.733673,336.560944 418.231201,348.153961 443.952393,350.783020 
	C446.985229,351.093048 451.324371,350.001312 452.569397,353.190887 
	C454.234009,357.455383 453.495087,362.391113 452.860229,367.011505 
	C452.642517,368.595825 450.974945,368.738495 449.617706,368.676636 
	C396.681854,366.263397 346.939026,343.401489 331.774841,280.086456 
	C331.154785,277.497528 329.773285,276.054016 327.644592,274.875549 
	C319.777191,270.520020 311.912201,266.158752 304.101746,261.702576 
	C302.455688,260.763428 300.284821,260.364716 299.397369,257.797699 
	C303.813385,254.888199 308.663605,252.696442 313.604675,251.020889 
	C324.973541,247.165619 333.831238,241.426071 333.985474,227.852097 
	C346.535858,189.373474 373.391205,166.833603 412.255371,157.795776 
	C422.007568,155.527893 431.927368,154.528366 441.974304,154.583557 
	C462.130646,154.694305 482.288025,154.614151 502.931580,154.612396 
z"/>
<path fill="#ffffff" opacity="1.000000" stroke="none" 
	d="
M645.668701,162.290985 
	C640.714966,158.917755 635.124207,157.847351 630.070435,155.223648 
	C661.861877,154.700897 693.527893,154.763718 725.236084,154.741333 
	C721.496826,157.631393 717.108582,157.740204 713.040833,158.783966 
	C694.413940,163.563492 681.110779,174.574295 672.712097,191.827789 
	C643.037048,252.789566 613.281189,313.712006 583.564819,374.653687 
	C582.476807,376.884949 581.795715,379.269012 578.482666,379.321808 
	C575.187378,379.374329 574.332214,377.154572 573.287598,374.845184 
	C550.975830,325.519501 528.650696,276.199829 506.346619,226.870667 
	C505.398346,224.773453 504.627533,222.595978 503.746643,220.387283 
	C507.037811,218.018509 510.525085,218.771179 513.663757,219.037292 
	C518.971985,219.487396 520.986816,217.287857 521.848389,212.250702 
	C523.101562,204.924484 525.119263,197.729065 526.810974,190.477875 
	C527.396973,190.353531 527.982910,190.229187 528.568909,190.104843 
	C548.162170,235.063614 567.755493,280.022400 587.489563,325.304230 
	C589.771851,324.093994 590.158936,322.199860 590.913574,320.670837 
	C610.083618,281.827148 629.252319,242.982635 648.322449,204.089798 
	C650.736023,199.167374 652.944580,194.088806 654.651794,188.886871 
	C658.614746,176.812256 656.228699,169.999741 645.668701,162.290985 
z"/>
<path fill="#ffffff" opacity="1.000000" stroke="none" 
	d="
M474.706299,398.917114 
	C474.698456,363.789276 474.595367,329.148346 474.787903,294.509064 
	C474.816071,289.442413 473.316803,287.882019 468.268311,288.017395 
	C455.453217,288.361115 442.623993,288.192535 429.800415,288.187012 
	C427.887756,288.186188 425.881042,288.528015 424.145020,287.606659 
	C423.990997,285.476257 425.600830,285.224823 426.629608,284.590179 
	C430.029175,282.493011 433.575012,280.627991 436.932526,278.468384 
	C448.075195,271.301361 460.112946,268.111115 473.440552,268.890869 
	C483.066833,269.454132 492.755432,269.130585 502.410828,268.934235 
	C506.579224,268.849487 507.966248,270.561279 507.962799,274.550323 
	C507.924042,319.349518 507.971771,364.148804 508.013367,408.948059 
	C508.015808,411.590027 507.521088,413.725922 504.838440,415.137665 
	C484.943024,425.607422 465.472260,436.829407 446.252167,448.489563 
	C445.855286,448.730286 445.316620,448.737335 444.645416,448.902222 
	C443.804657,446.799652 445.549133,445.834381 446.480194,444.723389 
	C453.430145,436.430054 460.490234,428.229126 467.454895,419.948029 
	C472.434662,414.026978 475.738647,407.469452 474.706299,398.917114 
z"/>
</svg>