<?xml version="1.0" standalone="no"?>
<!DOCTYPE svg PUBLIC "-//W3C//DTD SVG 20010904//EN"
 "http://www.w3.org/TR/2001/REC-SVG-20010904/DTD/svg10.dtd">
<svg version="1.0" xmlns="http://www.w3.org/2000/svg"
 width="1280.000000pt" height="720.000000pt" viewBox="0 0 1280.000000 720.000000"
 preserveAspectRatio="xMidYMid meet">

<g transform="translate(0.000000,720.000000) scale(0.100000,-0.100000)"
fill="#000000" stroke="none">
<path d="M5445 5270 c-403 -19 -720 -147 -964 -389 -173 -172 -288 -385 -339
-631 l-17 -84 -194 -88 c-106 -48 -195 -89 -197 -91 -2 -2 86 -54 196 -116
168 -95 201 -117 206 -139 40 -185 130 -389 234 -535 35 -48 105 -128 156
-176 200 -192 425 -303 734 -365 135 -27 350 -52 371 -44 11 4 13 28 11 101
l-3 95 -97 12 c-126 16 -261 50 -344 88 -311 141 -530 430 -609 805 -27 124
-32 390 -11 502 71 370 272 653 565 798 138 68 224 88 403 94 307 11 467 -60
644 -281 25 -31 48 -56 52 -56 4 0 12 19 18 43 7 23 38 135 71 250 32 114 59
208 59 210 0 6 -806 4 -945 -3z"/>
<path d="M8255 5272 l-390 -3 73 -24 c164 -53 260 -156 262 -281 1 -96 -29
-160 -620 -1359 -128 -258 -234 -472 -237 -475 -9 -9 -12 -2 -250 545 -158
362 -486 1121 -498 1150 -7 17 -10 14 -21 -22 -7 -23 -27 -107 -45 -187 l-33
-146 -103 0 c-58 0 -103 -4 -103 -9 0 -11 45 -110 535 -1191 188 -415 345
-763 348 -773 5 -14 15 -17 43 -15 l37 3 137 285 c75 157 180 373 232 480 52
107 191 391 308 630 117 239 270 553 341 697 70 144 149 295 175 335 73 114
165 198 275 252 92 45 249 96 295 96 12 0 26 5 29 10 4 7 -63 9 -197 8 -112
-2 -378 -4 -593 -6z"/>
<path d="M5646 3820 c-32 -10 -127 -58 -212 -107 l-154 -88 322 -5 323 -5 3
-745 2 -745 -34 -70 c-24 -49 -81 -123 -186 -245 -83 -96 -156 -184 -162 -195
-10 -18 -10 -19 13 -4 89 58 425 251 664 382 l100 55 3 896 2 896 -312 -1
c-277 0 -320 -2 -372 -19z"/>
</g>
</svg>
